Coordinates
version=1
nRows=17
nColumns=36
inDegrees=yes

Units are S.I. units (second, meters, Newtons, ...)
If the header above contains a line with 'inDegrees', this indicates whether rotational values are in degrees (yes) or radians (no).

endheader
time	pelvis_tilt	pelvis_list	pelvis_rotation	pelvis_tx	pelvis_ty	pelvis_tz	hip_flexion_r	hip_adduction_r	hip_rotation_r	knee_angle_r	knee_angle_r_beta	ankle_angle_r	subtalar_angle_r	mtp_angle_r	hip_flexion_l	hip_adduction_l	hip_rotation_l	knee_angle_l	knee_angle_l_beta	ankle_angle_l	subtalar_angle_l	mtp_angle_l	lumbar_extension	lumbar_bending	lumbar_rotation	arm_flex_r	arm_add_r	arm_rot_r	elbow_flex_r	pro_sup_r	arm_flex_l	arm_add_l	arm_rot_l	elbow_flex_l	pro_sup_l
      4.53333330	      1.85962349	      7.58194970	      8.74922997	      1.10288090	      0.94009125	      0.09857990	      5.22572890	      0.25053924	      1.65238922	     19.70017079	      0.34383284	     17.13080156	     -2.48137931	     -7.49999987	     26.47333684	     -2.89014106	     -3.27374999	     49.39779039	      0.86215409	      6.03135014	    -12.18372973	     -7.49999987	    -18.28761689	     -5.36222196	     -2.70744892	     64.28089586	     -0.10991398	     63.32712454	    120.21419172	     98.10037231	     72.74928007	      2.20548316	     68.63020804	    119.68898703	    104.72750986
      4.55000000	      1.90851927	      7.67083285	      8.37381159	      1.10261718	      0.94183786	      0.09852387	      4.06468919	      0.08431033	      1.49832310	     17.91560156	      0.31268623	     16.87950686	     -1.88001450	     -7.49999987	     25.02779863	     -2.96451764	     -2.82024027	     51.09421345	      0.89176225	      6.91891214	    -11.92259773	     -7.49999987	    -17.47303504	     -5.36460125	     -2.30079185	     63.46460656	      0.23565032	     62.42321018	    120.07571050	     97.50094471	     72.33029384	      2.16901330	     68.11038102	    119.90053949	    104.35164573
      4.56666670	      2.09584183	      7.83166076	      7.88410163	      1.10776114	      0.93961567	      0.09559227	      2.89237606	     -0.14404999	      1.23607689	     16.39303181	      0.28611238	     16.51640553	     -1.31745733	     -7.49999987	     24.00904581	     -2.89628321	     -2.26802110	     53.54893328	      0.93460520	      8.40585503	    -11.83126488	     -7.49999987	    -16.56316550	     -5.37590158	     -2.08178238	     62.57533223	      1.35941589	     62.65823118	    120.27962987	     96.99567470	     71.61566890	      2.21494219	     67.86657753	    119.92720002	    104.05578235
      4.58333330	      2.61354495	      8.03492898	      7.51604197	      1.11819784	      0.94138146	      0.09474924	      1.24026857	     -0.33674095	      0.98290786	     14.90218886	      0.26009226	     16.25239790	     -1.23830936	     -7.49999987	     22.52300131	     -2.95153884	     -1.72061018	     56.24076750	      0.98158657	      8.75149073	    -12.16598644	     -7.49999987	    -15.70737282	     -5.31461919	     -2.35814746	     60.92243042	      1.61537674	     62.34017572	    119.62633943	     96.70043822	     70.59244233	      1.69335396	     67.01428089	    119.59904436	    103.88855650
      4.60000000	      3.37348436	      8.17752730	      7.10559080	      1.12321421	      0.94277042	      0.09191955	     -0.76686779	     -0.46940780	      0.62994814	     13.30783413	      0.23226552	     16.17561241	     -1.21947387	     -7.49999987	     19.82530164	     -2.90783110	     -1.10441099	     57.84920014	      1.00965901	      8.94612162	    -12.42721379	     -7.49999987	    -14.99364850	     -4.92384870	     -3.03641268	     58.96610637	      2.17464718	     62.44381002	    118.62540247	     95.44450746	     68.69387027	      0.68369817	     65.66934640	    120.11114877	    104.51516385
      4.61666670	      4.00551365	      8.06931782	      6.52375812	      1.13388695	      0.94198946	      0.09123447	     -2.82394243	     -0.30386321	      0.72069405	     11.54409813	      0.20148252	     15.82673387	     -1.24629970	     -7.49999987	     17.23631685	     -3.03597416	     -0.48341144	     59.19309768	      1.03311445	      8.90065632	    -12.54268814	     -7.49999987	    -13.84958232	     -4.52876929	     -3.12517274	     56.48348164	      2.40573201	     62.27418276	    118.21836431	     95.33080768	     66.77697050	      0.36542540	     65.27912949	    119.83274485	    104.46836327
      4.63333330	      4.69372341	      7.78179137	      5.97732140	      1.13421837	      0.94239216	      0.09158092	     -4.53769522	      0.11845966	      1.02739357	     10.20692906	      0.17814452	     15.42903514	     -1.47744844	     -7.49999987	     15.07990731	     -3.32173033	      0.02310662	     60.46749145	      1.05535682	      9.11677810	    -12.37036555	     -7.49999987	    -13.33666717	     -3.83322878	     -2.90172438	     55.23104127	      2.47562673	     62.99974594	    118.76646532	     92.67985382	     65.50768665	      0.08826035	     65.01256766	    119.77420215	    102.45158457
      4.65000000	      5.45261579	      7.43177931	      5.59027632	      1.13899243	      0.94116311	      0.09339602	     -6.25389207	      0.68000463	      1.17637243	      9.02624935	      0.15753777	     15.13964900	     -1.62279435	     -7.49999987	     13.05928006	     -3.82303491	      0.54345776	     61.83683846	      1.07925643	      7.91308860	    -12.67572064	     -7.49999987	    -13.13784226	     -3.14641663	     -2.68560285	     54.21345199	      2.77915568	     63.08960135	    118.54744367	     93.50853939	     64.64617546	      0.22021717	     65.09718255	    120.07643159	    104.10794546
      4.66666670	      5.78671000	      6.99176734	      5.37997329	      1.13880046	      0.94139210	      0.09345273	     -7.32255408	      1.30526860	      1.54591857	      8.16349821	      0.14247992	     15.33731853	     -1.62969127	     -7.49999987	     11.70114467	     -4.44761332	      0.87859027	     62.79587438	      1.09599476	      6.52562839	    -12.46887725	     -7.49999987	    -12.59723783	     -2.54616528	     -2.58424437	     53.46280026	      2.98569128	     63.37824632	    118.24912390	     93.54674214	     63.91259520	      0.81612986	     65.67454251	    120.22063271	    104.19750902
      4.68333330	      7.29378447	      6.49540078	      4.88734570	      1.14207619	      0.94081682	      0.08950415	     -9.84682826	      2.01711117	      2.35813942	      6.79570090	      0.11860736	     14.44726994	     -2.10453374	     -7.49999987	      9.01730249	     -4.97896234	      1.19435771	     63.13671123	      1.10194349	      4.59927088	    -13.58211052	     -7.49999987	    -13.44557732	     -1.42283229	     -2.10347382	     53.35817806	      2.75824284	     63.07556363	    117.93577550	     93.61007392	     63.43725499	      1.38931128	     65.65208506	    119.71118855	    104.72367666
      4.70000000	      8.01627657	      5.97771847	      4.55754255	      1.14183146	      0.93908356	      0.08938647	    -11.05581435	      2.67505069	      2.91422140	      6.13472075	      0.10707108	     14.15617539	     -2.30891638	     -7.49999987	      7.37227272	     -5.45201328	      1.45879048	     63.36402871	      1.10591093	      3.72969407	    -14.00702728	     -7.49999987	    -13.58032496	     -0.47789171	     -1.71223824	     53.20632145	      2.52491112	     63.48863336	    118.91773662	     93.61321781	     62.95486770	      2.35198684	     65.42314064	    119.32388484	    104.99763748
      4.71666670	      8.33088696	      5.56694158	      4.37451009	      1.14165758	      0.93972628	      0.08914014	    -11.66308504	      3.19674965	      3.34281483	      5.76843396	      0.10067817	     14.09700111	     -2.25641338	     -7.49999987	      6.34260802	     -5.73291102	      1.54745561	     63.49206254	      1.10814554	      3.43667227	    -14.17813013	     -7.49999987	    -13.40469748	      0.24457878	     -1.76055802	     52.60889728	      2.75871149	     64.07961227	    119.38674388	     93.63458654	     62.22983268	      2.76525730	     65.81014532	    119.15324891	    105.06961618
      4.73333330	      9.25294532	      5.31412818	      3.95264473	      1.14760587	      0.94153299	      0.09141742	    -13.04995599	      3.60306098	      4.38174527	      5.34269902	      0.09324769	     13.56458599	     -2.92176873	     -7.49999987	      4.08155035	     -5.77886186	      1.37005605	     62.95675341	      1.09880263	      3.07613683	    -14.52864172	     -7.49999987	    -13.99458256	      0.67707603	     -1.03664520	     52.43288011	      2.43311972	     64.65993507	    120.06376819	     93.59820013	     61.70238595	      3.51713050	     66.16802202	    119.07896391	    105.44309251
      4.75000000	      9.40440770	      4.89475771	      3.84864174	      1.14775937	      0.94148625	      0.09078922	    -13.45314357	      4.15027029	      4.87765730	      5.18807926	      0.09054906	     13.47219042	     -2.91826876	     -7.49999987	      2.70250534	     -5.97476603	      1.40530751	     62.40649838	      1.08919887	      2.75850722	    -14.50749684	     -7.49999987	    -13.72141586	      1.32043259	     -0.93412957	     51.80591076	      2.39649319	     64.61721857	    119.89557699	     93.57713782	     60.69262032	      3.80054500	     66.52827644	    119.09081899	    105.51541159
      4.76666670	      9.89990569	      4.63699811	      3.44793097	      1.14862684	      0.94470544	      0.09111349	    -14.19267672	      4.53222840	      6.04857053	      5.03902892	      0.08794765	     13.06374778	     -3.47788930	     -7.49999987	      0.82251565	     -6.02751296	      1.06871601	     61.51120339	      1.07357303	      2.14647337	    -14.72292218	     -7.49999987	    -13.95929964	      1.70404223	     -0.87008140	     50.95693780	      2.63691298	     64.99303864	    120.10908977	     93.53965120	     59.68170689	      3.76406605	     66.25191514	    118.80129273	    105.77227621
      4.78333330	     10.15906926	      4.33007243	      3.30558124	      1.14835767	      0.93931955	      0.09077992	    -14.60295207	      4.99286640	      6.62598952	      4.97216367	      0.08678063	     12.87838720	     -3.74339264	     -7.49999987	     -0.55747081	     -6.12023597	      0.97675766	     60.95177945	      1.06380924	      1.25714851	    -15.09475141	     -7.49999987	    -13.89313765	      2.14541949	     -1.32052983	     50.80926870	      3.17439427	     65.44540799	    120.73930594	     93.01611073	     59.38192639	      3.51208480	     66.00464263	    118.57401524	    105.84697232
      4.80000000	     10.32981173	      4.00915670	      3.08696183	      1.14908498	      0.93450671	      0.09142704	    -14.83761741	      5.46797450	      7.38358086	      4.95970733	      0.08656322	     12.87821055	     -4.11290667	     -7.49999987	     -1.78224601	     -6.19962182	      0.88193743	     60.43473511	      1.05478511	      0.51327331	    -15.40897827	     -7.49999987	    -13.59202239	      2.58958198	     -1.52781949	     50.77213467	      3.70203349	     65.88984663	    121.84652871	     92.03159452	     58.69006113	      3.29460003	     65.11388777	    118.71097442	    105.71257484
